<svg width="305" height="87" viewBox="0 0 305 87" fill="none" xmlns="http://www.w3.org/2000/svg">
<g filter="url(#filter0_d_355_783)">
<path d="M64.0427 46.7872L42.8957 58.9958L29.4064 66.7844L29.1882 66.9103L21.7494 71.2051C16.6236 74.1648 10.215 70.4655 10.215 64.5452V15.7103C10.215 9.79001 16.6229 6.09135 21.7494 9.05042L29.994 13.8103L31.0622 14.4267L42.8957 21.259L47.3719 23.843L47.8314 24.109L64.042 33.4675C69.1684 36.4273 69.1684 43.8275 64.0427 46.7872Z" fill="#681D29"/>
<path d="M33.4386 49.1116C32.4703 49.3107 30.8799 49.4325 28.6703 48.7442C27.9814 46.5346 28.1031 44.9435 28.303 43.9759C29.2023 39.6186 33.9382 36.9642 40.2237 37.1915C40.4503 43.4763 37.7959 48.2129 33.4386 49.1116Z" fill="#F7DAAB"/>
<path d="M37.7495 53.6301C37.1168 53.5928 36.1218 53.4091 34.9248 52.647C34.9839 51.2297 35.4019 50.3079 35.7327 49.7674C37.2231 47.3347 40.6818 46.5255 44.4607 47.669C43.2398 51.4232 40.5981 53.7982 37.7495 53.6301Z" fill="#2F050F"/>
<path d="M50.2346 50.7477C49.6829 50.6738 48.8082 50.4381 47.7231 49.6394C47.6879 48.2925 47.9954 47.4403 48.2495 46.9456C49.3951 44.7184 52.3485 44.1575 55.6975 45.477C54.8657 48.9786 52.7173 51.0805 50.2346 50.7477Z" fill="#D86B79"/>
<path d="M62.8309 47.4086C62.1828 47.84 61.0463 48.4001 59.1695 48.562C57.8895 47.1792 57.4257 45.9998 57.2364 45.2454C56.3849 41.8472 58.9704 38.5328 63.707 36.827C66.0644 41.2751 65.747 45.4671 62.8309 47.4086Z" fill="#2F050F"/>
<path d="M50.9369 42.4538C50.3711 42.5805 49.438 42.6684 48.1284 42.2856C47.69 40.9943 47.7365 40.0584 47.8392 39.487C48.3008 36.9178 51.0439 35.3105 54.7411 35.3809C54.9712 39.0718 53.4836 41.8817 50.9369 42.4538Z" fill="#D86B79"/>
<path d="M46.8111 35.9755C46.3635 36.3471 45.5705 36.8516 44.2292 37.1071C43.2539 36.1521 42.8725 35.2929 42.7057 34.7356C41.9555 32.2262 43.6761 29.5366 47.0074 27.9118C48.8814 31.1087 48.8251 34.3014 46.8111 35.9755Z" fill="#D86B79"/>
<path d="M39.0605 32.5865C38.6882 33.0094 38 33.6125 36.7277 34.0713C35.5954 33.3317 35.0655 32.5858 34.8002 32.089C33.6082 29.8512 34.8115 27.0406 37.791 24.9696C40.2131 27.6718 40.736 30.6837 39.0605 32.5865Z" fill="#D86B79"/>
<path d="M28.5267 31.7681C27.9877 31.9046 27.1024 32.0144 25.8696 31.6885C25.4811 30.4747 25.5459 29.5845 25.6542 29.0391C26.1454 26.5853 28.778 24.9808 32.2803 24.9421C32.4203 28.441 30.9517 31.1523 28.5267 31.7681Z" fill="#D86B79"/>
<path d="M26.1158 22.2554C25.5747 21.9915 24.7682 21.4666 23.9935 20.3561C24.5557 19.1246 25.2545 18.4624 25.7394 18.1057C27.9222 16.4984 31.2472 17.0452 34.1479 19.4343C31.7244 22.3068 28.5528 23.4433 26.1158 22.2554Z" fill="#D86B79"/>
<path d="M44.5494 56.2183C44.1715 55.758 43.6599 54.9439 43.4087 53.5766C44.3967 52.5984 45.2812 52.2226 45.8548 52.0615C48.4367 51.3346 51.1839 53.1234 52.825 56.5342C49.5288 58.3941 46.2517 58.2907 44.5494 56.2183Z" fill="#D86B79"/>
<path d="M36.9874 57.5476C37.0148 56.9459 37.1738 56.0015 37.8719 54.8714C39.1977 54.9446 40.064 55.3541 40.5727 55.6757C42.8647 57.1239 43.6634 60.425 42.6402 64.0069C39.1168 62.7986 36.8649 60.2561 36.9874 57.5476Z" fill="#D86B79"/>
<path d="M30.8025 54.9826C30.9974 54.4843 31.407 53.7314 32.3457 52.9552C33.5005 53.3429 34.1529 53.8996 34.5131 54.2951C36.1352 56.0747 35.9065 59.0415 33.9833 61.7944C31.2015 59.9127 29.9257 57.2246 30.8025 54.9826Z" fill="#D86B79"/>
<path d="M22.5199 45.5888C22.192 46.1046 21.5594 46.8653 20.2871 47.562C18.9761 46.9406 18.3005 46.2186 17.9431 45.7225C16.3358 43.4911 17.1704 40.2625 19.9958 37.5539C22.9731 40.0929 23.9942 43.2673 22.5199 45.5888Z" fill="#D86B79"/>
<path d="M16.0346 48.1545C15.9917 48.6957 15.8144 49.5521 15.1191 50.6027C13.8595 50.6062 13.0467 50.2846 12.571 50.0228C10.4296 48.8434 9.7604 45.9224 10.8328 42.6544C14.1529 43.5537 16.226 45.7176 16.0346 48.1545Z" fill="#2F050F"/>
<path d="M15.5723 55.0086C15.8524 54.7799 16.352 54.4703 17.2119 54.3105C17.8642 54.8925 18.1309 55.4167 18.252 55.7573C18.7959 57.2907 17.7495 58.9402 15.6377 59.9416C14.3521 57.9909 14.3119 56.0374 15.5723 55.0086Z" fill="#2F050F"/>
<path d="M19.076 58.4589C19.3906 58.202 19.9514 57.8544 20.9169 57.6749C21.6494 58.3287 21.9485 58.917 22.085 59.2998C22.6958 61.021 21.5207 62.8732 19.1499 63.997C17.7052 61.8064 17.6608 59.6136 19.076 58.4589Z" fill="#2F050F"/>
<path d="M22.432 63.4277C22.6635 63.2391 23.0766 62.9823 23.7873 62.8507C24.3264 63.332 24.5466 63.7648 24.6473 64.0463C25.0969 65.3136 24.2321 66.676 22.4869 67.5043C21.4236 65.8921 21.3905 64.2778 22.432 63.4277Z" fill="#2F050F"/>
<path d="M26.106 62.7817C25.8386 62.61 25.4438 62.2765 25.0765 61.6009C25.3854 60.8972 25.7513 60.5313 26.0033 60.3378C27.1369 59.4659 28.8005 59.8923 30.2121 61.3856C28.9307 62.9914 27.3086 63.5558 26.106 62.7817Z" fill="#F7DAAB"/>
<path d="M23.9435 58.1337C23.6395 57.9381 23.1899 57.5588 22.7726 56.7904C23.1244 55.9895 23.5403 55.5744 23.8267 55.3534C25.1166 54.3619 27.0089 54.8467 28.614 56.5448C27.1567 58.3716 25.3123 59.0134 23.9435 58.1337Z" fill="#F7DAAB"/>
<path d="M27.7956 13.4071C27.7161 13.7279 27.5155 14.2374 26.9483 14.8693C26.099 14.8905 25.5818 14.7124 25.2862 14.5646C23.9541 13.8989 23.7782 12.1805 24.8084 10.2298C26.9603 10.7126 28.1538 11.9623 27.7956 13.4071Z" fill="#2F050F"/>
<path d="M32.934 12.0707C32.6638 12.3114 32.1642 12.6513 31.2353 12.8877C30.4021 12.4148 30.0087 11.956 29.8117 11.652C28.925 10.2854 29.7892 8.64719 31.958 7.50015C33.7482 9.17778 34.1493 10.9863 32.934 12.0707Z" fill="#D86B79"/>
<path d="M38.9085 11.9827C38.5777 12.1742 37.9958 12.4148 37.0282 12.4458C36.3569 11.7484 36.1077 11.17 36.0036 10.8019C35.537 9.14612 36.8445 7.61697 39.2751 6.91537C40.5284 9.11374 40.3982 11.1221 38.9085 11.9827Z" fill="#F7DAAB"/>
<path d="M44.1285 14.8813C43.7028 14.9158 43.0153 14.8855 42.1145 14.4774C41.9583 13.5006 42.1096 12.83 42.256 12.4282C42.9125 10.6197 45.1017 9.73513 47.773 10.1581C47.4767 12.8455 46.0461 14.7244 44.1285 14.8813Z" fill="#F7DAAB"/>
<path d="M48.139 18.9431C47.7287 18.903 47.0736 18.751 46.2432 18.1859C46.17 17.1838 46.3678 16.5414 46.5388 16.1656C47.3086 14.4767 49.4732 13.9785 51.9967 14.8701C51.502 17.5012 49.9862 19.1239 48.139 18.9431Z" fill="#F7DAAB"/>
<path d="M48.711 23.7853C48.4387 23.539 48.0496 23.0823 47.7491 22.2273C48.2142 21.4497 48.6871 21.0795 49.0031 20.893C50.4246 20.0528 52.226 20.8269 53.5666 22.8148C51.8559 24.4939 49.9362 24.8922 48.711 23.7853Z" fill="#F7DAAB"/>
<path d="M60.8781 36.2204C60.7156 36.6546 60.3482 37.3414 59.425 38.1852C58.1745 38.1901 57.4391 37.9332 57.0253 37.7242C55.1626 36.782 55.1493 34.4401 56.9409 31.8181C60.0351 32.5337 61.6107 34.2655 60.8781 36.2204Z" fill="#D86B79"/>
<path d="M20.2195 54.0368C19.8796 53.8179 19.3765 53.3936 18.9092 52.5337C19.3026 51.6379 19.7685 51.1727 20.0894 50.9257C21.5326 49.816 23.6501 50.3585 25.4466 52.2592C23.8155 54.3035 21.7508 55.022 20.2195 54.0368Z" fill="#F7DAAB"/>
<path d="M27.899 35.0952C28.4219 34.9791 29.2797 34.8996 30.4661 35.2507C30.8236 36.4351 30.7476 37.2936 30.6343 37.8171C30.1227 40.1731 27.5535 41.646 24.1687 41.5791C24.085 38.1943 25.5451 35.6181 27.899 35.0952Z" fill="#2F050F"/>
<path d="M22.6663 31.6625C23.211 31.8539 24.0385 32.267 24.9076 33.248C24.5262 34.502 23.9463 35.2225 23.5311 35.6237C21.6621 37.4294 18.449 37.29 15.4104 35.3225C17.3519 32.267 20.2146 30.8012 22.6663 31.6625Z" fill="#2F050F"/>
<path d="M20.4863 26.2982C20.9718 26.7169 21.6565 27.4656 22.1329 28.7626C21.1787 29.7611 20.2526 30.1749 19.6397 30.3649C16.8826 31.2192 13.578 29.671 11.2656 26.5001C14.6511 24.5143 18.2991 24.4144 20.4863 26.2982Z" fill="#2F050F"/>
<path d="M22.1308 19.2647C22.0984 20.0247 21.8873 21.2435 20.9373 22.8141C19.1126 23.0196 17.9177 22.7016 17.214 22.413C14.048 21.1133 12.92 17.1578 14.2964 12.4423C19.1548 13.1657 22.2757 15.8447 22.1308 19.2647Z" fill="#F7DAAB"/>
<path d="M49.0327 46.1842C48.671 50.2122 44.8879 54.0009 40.7733 54.9938C33.3823 56.7777 29.0693 48.5662 21.7775 49.671C18.7966 50.1228 14.5554 52.248 10.215 60.6833C10.215 59.7044 10.215 58.7256 10.215 57.7467C14.3436 50.5999 18.3237 48.5191 21.4109 48.1109C29.2283 47.0779 34.1247 56.4005 40.9577 54.2592C44.4516 53.1642 47.1024 49.4881 47.3811 45.9998C47.7259 41.6861 44.4206 37.9255 41.508 36.0888C35.1521 32.0819 29.4901 36.497 25.0814 32.4183C21.4784 29.0842 22.3539 23.4461 22.42 23.0583C23.097 19.081 26.0772 15.5196 29.9933 13.8103C31.8623 12.9926 33.946 12.5978 36.093 12.7808C41.9506 13.279 46.8906 17.9544 47.8307 24.1097L47.3712 23.8437C46.1827 18.1113 41.47 13.9327 36.093 13.6069C34.3436 13.5013 32.6322 13.8096 31.0615 14.4274C27.0384 16.0108 23.9407 19.6278 23.5213 23.5179C23.4678 24.0076 23.111 27.8963 25.8154 30.7674C29.666 34.8566 34.6736 31.5225 41.2321 35.0804C44.7232 36.9741 49.4746 41.2653 49.0327 46.1842Z" fill="#D86B79"/>
<path d="M29.4064 66.7844L29.1882 66.9103C27.082 65.6437 25.7858 64.2721 24.9899 63.2532C22.9689 60.6664 23.1659 59.0204 20.8606 56.5539C19.6946 55.3062 18.3308 53.8475 16.6391 53.9847C15.2113 54.1001 14.1993 55.2999 12.6012 57.1964C11.4683 58.5405 10.7026 59.791 10.215 60.6832C10.215 59.6741 10.215 58.6643 10.215 57.6552C10.3754 57.3456 10.614 56.9262 10.9489 56.4624C11.331 55.934 13.5674 52.8384 16.4547 52.7919C18.9733 52.7511 20.8001 55.0494 21.7775 56.2788C23.743 58.7516 23.3404 60.2737 25.1729 62.8858C26.5634 64.8682 28.2474 66.0842 29.4064 66.7844Z" fill="#F7DAAB"/>
<g style="mix-blend-mode:multiply">
<path d="M23.4446 70.2255L21.7494 71.2043C16.6236 74.1641 10.215 70.4648 10.215 64.5445V15.7103C10.215 9.79001 16.6229 6.09135 21.7494 9.05042L23.4446 10.0293C19.7347 10.0996 16.3639 13.0876 16.3639 17.245V63.0097C16.3639 67.1665 19.7347 70.1544 23.4446 70.2255Z" fill="#B4B4B4"/>
</g>
</g>
<path d="M105.72 42.124L102.168 45.772V51.5H98.008V29.1H102.168V40.588L113.24 29.1H117.912L108.504 39.116L118.488 51.5H113.624L105.72 42.124ZM120.624 34.412H124.624V51.5H120.624V34.412ZM122.64 31.596C121.915 31.596 121.307 31.372 120.816 30.924C120.325 30.4547 120.08 29.8787 120.08 29.196C120.08 28.5133 120.325 27.948 120.816 27.5C121.307 27.0307 121.915 26.796 122.64 26.796C123.365 26.796 123.973 27.02 124.464 27.468C124.955 27.8947 125.2 28.4387 125.2 29.1C125.2 29.804 124.955 30.4013 124.464 30.892C123.995 31.3613 123.387 31.596 122.64 31.596ZM146.61 27.756V51.5H142.77V49.292C142.109 50.1027 141.287 50.7107 140.306 51.116C139.346 51.5213 138.279 51.724 137.106 51.724C135.463 51.724 133.981 51.3613 132.658 50.636C131.357 49.9107 130.333 48.8867 129.586 47.564C128.839 46.22 128.466 44.684 128.466 42.956C128.466 41.228 128.839 39.7027 129.586 38.38C130.333 37.0573 131.357 36.0333 132.658 35.308C133.981 34.5827 135.463 34.22 137.106 34.22C138.237 34.22 139.271 34.412 140.21 34.796C141.149 35.18 141.949 35.756 142.61 36.524V27.756H146.61ZM137.586 48.3C138.546 48.3 139.41 48.0867 140.178 47.66C140.946 47.212 141.554 46.5827 142.002 45.772C142.45 44.9613 142.674 44.0227 142.674 42.956C142.674 41.8893 142.45 40.9507 142.002 40.14C141.554 39.3293 140.946 38.7107 140.178 38.284C139.41 37.836 138.546 37.612 137.586 37.612C136.626 37.612 135.762 37.836 134.994 38.284C134.226 38.7107 133.618 39.3293 133.17 40.14C132.722 40.9507 132.498 41.8893 132.498 42.956C132.498 44.0227 132.722 44.9613 133.17 45.772C133.618 46.5827 134.226 47.212 134.994 47.66C135.762 48.0867 136.626 48.3 137.586 48.3ZM157.123 51.724C155.736 51.724 154.381 51.5427 153.059 51.18C151.736 50.8173 150.68 50.3587 149.891 49.804L151.427 46.764C152.195 47.276 153.112 47.692 154.179 48.012C155.267 48.3107 156.333 48.46 157.379 48.46C159.768 48.46 160.963 47.8307 160.963 46.572C160.963 45.9747 160.653 45.5587 160.035 45.324C159.437 45.0893 158.467 44.8653 157.123 44.652C155.715 44.4387 154.563 44.1933 153.667 43.916C152.792 43.6387 152.024 43.1587 151.363 42.476C150.723 41.772 150.403 40.8013 150.403 39.564C150.403 37.9427 151.075 36.652 152.419 35.692C153.784 34.7107 155.619 34.22 157.923 34.22C159.096 34.22 160.269 34.3587 161.443 34.636C162.616 34.892 163.576 35.244 164.323 35.692L162.787 38.732C161.336 37.8787 159.704 37.452 157.891 37.452C156.717 37.452 155.821 37.6333 155.203 37.996C154.605 38.3373 154.307 38.796 154.307 39.372C154.307 40.012 154.627 40.4707 155.267 40.748C155.928 41.004 156.941 41.2493 158.307 41.484C159.672 41.6973 160.792 41.9427 161.667 42.22C162.541 42.4973 163.288 42.9667 163.907 43.628C164.547 44.2893 164.867 45.228 164.867 46.444C164.867 48.044 164.173 49.324 162.787 50.284C161.4 51.244 159.512 51.724 157.123 51.724ZM179.064 51.82C176.802 51.82 174.754 51.3293 172.92 50.348C171.106 49.3453 169.677 47.9693 168.632 46.22C167.608 44.4707 167.096 42.4973 167.096 40.3C167.096 38.1027 167.618 36.1293 168.664 34.38C169.709 32.6307 171.138 31.2653 172.952 30.284C174.786 29.2813 176.834 28.78 179.096 28.78C180.93 28.78 182.605 29.1 184.12 29.74C185.634 30.38 186.914 31.308 187.96 32.524L185.272 35.052C183.65 33.3027 181.656 32.428 179.288 32.428C177.752 32.428 176.376 32.7693 175.16 33.452C173.944 34.1133 172.994 35.0413 172.312 36.236C171.629 37.4307 171.288 38.7853 171.288 40.3C171.288 41.8147 171.629 43.1693 172.312 44.364C172.994 45.5587 173.944 46.4973 175.16 47.18C176.376 47.8413 177.752 48.172 179.288 48.172C181.656 48.172 183.65 47.2867 185.272 45.516L187.96 48.076C186.914 49.292 185.624 50.22 184.088 50.86C182.573 51.5 180.898 51.82 179.064 51.82ZM198.617 51.724C196.889 51.724 195.331 51.3507 193.945 50.604C192.558 49.8573 191.47 48.8227 190.681 47.5C189.913 46.156 189.529 44.6413 189.529 42.956C189.529 41.2707 189.913 39.7667 190.681 38.444C191.47 37.1213 192.558 36.0867 193.945 35.34C195.331 34.5933 196.889 34.22 198.617 34.22C200.366 34.22 201.934 34.5933 203.321 35.34C204.707 36.0867 205.785 37.1213 206.553 38.444C207.342 39.7667 207.737 41.2707 207.737 42.956C207.737 44.6413 207.342 46.156 206.553 47.5C205.785 48.8227 204.707 49.8573 203.321 50.604C201.934 51.3507 200.366 51.724 198.617 51.724ZM198.617 48.3C200.089 48.3 201.305 47.8093 202.265 46.828C203.225 45.8467 203.705 44.556 203.705 42.956C203.705 41.356 203.225 40.0653 202.265 39.084C201.305 38.1027 200.089 37.612 198.617 37.612C197.145 37.612 195.929 38.1027 194.969 39.084C194.03 40.0653 193.561 41.356 193.561 42.956C193.561 44.556 194.03 45.8467 194.969 46.828C195.929 47.8093 197.145 48.3 198.617 48.3ZM221.258 34.22C223.412 34.22 225.14 34.8493 226.442 36.108C227.743 37.3667 228.394 39.2333 228.394 41.708V51.5H224.394V42.22C224.394 40.7267 224.042 39.6067 223.338 38.86C222.634 38.092 221.631 37.708 220.33 37.708C218.858 37.708 217.695 38.156 216.842 39.052C215.988 39.9267 215.562 41.196 215.562 42.86V51.5H211.562V34.412H215.37V36.62C216.031 35.8307 216.863 35.2333 217.866 34.828C218.868 34.4227 219.999 34.22 221.258 34.22ZM243.164 34.22C245.318 34.22 247.046 34.8493 248.348 36.108C249.649 37.3667 250.3 39.2333 250.3 41.708V51.5H246.3V42.22C246.3 40.7267 245.948 39.6067 245.244 38.86C244.54 38.092 243.537 37.708 242.236 37.708C240.764 37.708 239.601 38.156 238.748 39.052C237.894 39.9267 237.468 41.196 237.468 42.86V51.5H233.468V34.412H237.276V36.62C237.937 35.8307 238.769 35.2333 239.772 34.828C240.774 34.4227 241.905 34.22 243.164 34.22ZM263.658 48.332C265.514 48.332 267.061 47.7133 268.298 46.476L270.41 48.94C269.664 49.8573 268.704 50.5507 267.53 51.02C266.357 51.4893 265.034 51.724 263.562 51.724C261.685 51.724 260.032 51.3507 258.602 50.604C257.173 49.8573 256.064 48.8227 255.274 47.5C254.506 46.156 254.122 44.6413 254.122 42.956C254.122 41.292 254.496 39.7987 255.242 38.476C256.01 37.132 257.056 36.0867 258.378 35.34C259.722 34.5933 261.237 34.22 262.922 34.22C264.522 34.22 265.973 34.572 267.274 35.276C268.597 35.9587 269.642 36.9507 270.41 38.252C271.178 39.532 271.562 41.036 271.562 42.764L258.474 45.324C258.88 46.3053 259.53 47.052 260.426 47.564C261.322 48.076 262.4 48.332 263.658 48.332ZM262.922 37.42C261.45 37.42 260.256 37.9 259.338 38.86C258.442 39.82 257.994 41.1107 257.994 42.732V42.764L267.658 40.908C267.381 39.8627 266.816 39.02 265.962 38.38C265.13 37.74 264.117 37.42 262.922 37.42ZM283.245 51.724C281.475 51.724 279.885 51.3507 278.477 50.604C277.069 49.8573 275.971 48.8227 275.181 47.5C274.392 46.156 273.997 44.6413 273.997 42.956C273.997 41.2707 274.392 39.7667 275.181 38.444C275.971 37.1213 277.059 36.0867 278.445 35.34C279.853 34.5933 281.453 34.22 283.245 34.22C284.931 34.22 286.403 34.5613 287.661 35.244C288.941 35.9267 289.901 36.908 290.541 38.188L287.469 39.98C286.979 39.1907 286.36 38.604 285.613 38.22C284.888 37.8147 284.088 37.612 283.213 37.612C281.72 37.612 280.483 38.1027 279.501 39.084C278.52 40.044 278.029 41.3347 278.029 42.956C278.029 44.5773 278.509 45.8787 279.469 46.86C280.451 47.82 281.699 48.3 283.213 48.3C284.088 48.3 284.888 48.108 285.613 47.724C286.36 47.3187 286.979 46.7213 287.469 45.932L290.541 47.724C289.88 49.004 288.909 49.996 287.629 50.7C286.371 51.3827 284.909 51.724 283.245 51.724ZM303.443 50.572C302.973 50.956 302.397 51.244 301.715 51.436C301.053 51.628 300.349 51.724 299.603 51.724C297.725 51.724 296.275 51.2333 295.251 50.252C294.227 49.2707 293.715 47.8413 293.715 45.964V30.636H297.715V34.54H302.291V37.74H297.715V45.868C297.715 46.7 297.917 47.34 298.323 47.788C298.749 48.2147 299.336 48.428 300.083 48.428C300.979 48.428 301.725 48.1933 302.323 47.724L303.443 50.572Z" fill="white"/>
<defs>
<filter id="filter0_d_355_783" x="0.214966" y="0.915375" width="77.6719" height="85.3314" filterUnits="userSpaceOnUse" color-interpolation-filters="sRGB">
<feFlood flood-opacity="0" result="BackgroundImageFix"/>
<feColorMatrix in="SourceAlpha" type="matrix" values="0 0 0 0 0 0 0 0 0 0 0 0 0 0 0 0 0 0 127 0" result="hardAlpha"/>
<feOffset dy="4"/>
<feGaussianBlur stdDeviation="5"/>
<feComposite in2="hardAlpha" operator="out"/>
<feColorMatrix type="matrix" values="0 0 0 0 0.968627 0 0 0 0 0.854902 0 0 0 0 0.670588 0 0 0 0.5 0"/>
<feBlend mode="normal" in2="BackgroundImageFix" result="effect1_dropShadow_355_783"/>
<feBlend mode="normal" in="SourceGraphic" in2="effect1_dropShadow_355_783" result="shape"/>
</filter>
</defs>
</svg>
