<svg width="18" height="18" viewBox="0 0 18 18" fill="none" xmlns="http://www.w3.org/2000/svg">
<path fill-rule="evenodd" clip-rule="evenodd" d="M14.2735 1.11841C13.8648 1.12825 13.454 1.23699 13.0771 1.45458C11.871 2.15089 11.4535 3.71036 12.1498 4.91638C12.1615 4.9365 12.174 4.956 12.1861 4.97573L9.19886 7.74758C8.35631 7.12135 7.31442 6.75002 6.18752 6.75002C5.86769 6.75002 5.55509 6.78079 5.25148 6.83791L4.32203 4.63515C5.06881 4.03864 5.29225 2.95911 4.80104 2.1083C4.26004 1.17126 3.04533 0.846595 2.1083 1.38759C1.17126 1.9286 0.845486 3.14221 1.38649 4.07924C1.78142 4.76329 2.53557 5.12179 3.27833 5.05483L4.17043 7.1708C2.38084 7.95251 1.12502 9.73974 1.12502 11.8125C1.12502 13.3899 1.85213 14.8018 2.98829 15.7313C3.05536 15.8262 3.15016 15.898 3.25966 15.9368C4.08723 16.5263 5.09741 16.875 6.18752 16.875C7.31529 16.875 8.35817 16.5035 9.20107 15.8764C9.24854 15.8494 9.29183 15.8158 9.32959 15.7764C9.82431 15.3832 10.2436 14.9 10.5634 14.3514L12.9386 14.8931C12.9352 15.2332 13.0179 15.578 13.199 15.8917C13.74 16.8288 14.9547 17.1534 15.8917 16.6124C16.8288 16.0714 17.1545 14.8578 16.6135 13.9208C16.0725 12.9837 14.8578 12.658 13.9208 13.199C13.6497 13.3555 13.4307 13.5691 13.2682 13.8153L11.0248 13.3022C11.1705 12.8309 11.25 12.3307 11.25 11.8125C11.25 11.6041 11.2362 11.3992 11.2115 11.1973L13.2001 10.8446C13.7412 11.7808 14.9551 12.1061 15.8917 11.5653C16.8288 11.0243 17.1534 9.8096 16.6124 8.87256C16.0714 7.93552 14.8578 7.61086 13.9208 8.15186C13.3276 8.49431 12.9803 9.10615 12.9419 9.74707L10.9512 10.1008C10.7399 9.51551 10.4235 8.97981 10.025 8.5166L12.9759 5.77771C13.7492 6.27139 14.7656 6.33143 15.6105 5.84363C16.8165 5.14733 17.2351 3.58896 16.5388 2.38293C16.0601 1.5538 15.1727 1.09675 14.2735 1.11841ZM6.18757 7.875C8.36886 7.875 10.1251 9.63121 10.1251 11.8125C10.1251 12.8108 9.75655 13.7192 9.1484 14.4119C8.80526 13.7869 8.27013 13.282 7.62349 12.977C8.11974 12.5632 8.43757 11.9416 8.43757 11.25C8.43757 10.014 7.42355 8.99999 6.18757 9C4.9516 9 3.93757 10.014 3.93757 11.25C3.93757 11.9416 4.25541 12.5632 4.75167 12.977C4.10514 13.2822 3.56982 13.7868 3.22676 14.4119C2.6186 13.7192 2.25007 12.8109 2.25007 11.8125C2.25007 9.63121 4.00629 7.875 6.18757 7.875Z" fill="#70232F"/>
</svg>
